<?xml version="1.0" encoding="UTF-8"?>
<svg role="img" aria-label="Être avisé du lancement" width="341px" height="80px" viewBox="0 0 341 80" version="1.1" xmlns="http://www.w3.org/2000/svg" xmlns:xlink="http://www.w3.org/1999/xlink">
    <!-- Generator: Sketch 53.2 (72643) - https://sketchapp.com -->
    <title>Être avisé du lancement</title>
    <g id="Page-1" stroke="none" stroke-width="1" fill="none" fill-rule="evenodd">
        <g id="Artboard-Copy-2" transform="translate(-302.000000, -557.000000)">
            <g id="Group" transform="translate(302.000000, 557.000000)">
                <rect id="Rectangle-Copy" fill="#5DE0B1" x="0" y="0" width="341" height="80"></rect>
                <path d="M47.464,29.32 L45.904,27.52 L44.344,29.32 L41.944,29.32 L44.344,25.72 L47.464,25.72 L49.864,29.32 L47.464,29.32 Z M41.68,49 L41.68,31 L49.936,31 L49.936,33.64 L44.56,33.64 L44.56,38.44 L49.456,38.44 L49.456,41.08 L44.56,41.08 L44.56,46.36 L49.936,46.36 L49.936,49 L41.68,49 Z M56.176,44.896 C56.176,46.072 56.728,46.6 57.976,46.6 C58.384,46.6 58.888,46.528 59.296,46.384 L59.296,48.952 C58.864,49.096 58.096,49.24 57.4,49.24 C55.024,49.24 53.296,48.304 53.296,45.088 L53.296,39.52 L51.376,39.52 L51.376,37 L53.296,37 L53.296,33.4 L56.176,33.4 L56.176,37 L59.296,37 L59.296,39.52 L56.176,39.52 L56.176,44.896 Z M64.816,42.88 L64.816,49 L61.936,49 L61.936,37 L64.816,37 L64.816,38.944 C65.68,37.528 67.096,36.76 68.848,36.76 C69.064,36.76 69.304,36.76 69.448,36.808 L69.448,39.952 C69.112,39.832 68.68,39.76 68.2,39.76 C66.064,39.76 64.816,40.864 64.816,42.88 Z M76.72,39.28 C75.04,39.28 73.936,40.24 73.624,41.92 L79.816,41.92 C79.504,40.24 78.4,39.28 76.72,39.28 Z M82.36,45.4 C81.64,47.896 79.552,49.24 76.72,49.24 C73.288,49.24 70.768,46.672 70.768,43 C70.768,39.328 73.288,36.76 76.72,36.76 C80.152,36.76 82.672,39.328 82.672,43 C82.672,43.336 82.648,43.648 82.624,43.96 L73.6,43.96 C73.912,45.712 75.064,46.72 76.84,46.72 C78.112,46.72 78.856,46.24 79.24,45.4 L82.36,45.4 Z M94.744,46.84 C96.424,46.84 97.96,45.88 97.96,44.056 L97.96,43.504 C96.04,44.296 93.064,44.056 93.064,45.592 C93.064,46.432 93.784,46.84 94.744,46.84 Z M97.96,49 L97.96,47.224 C97.192,48.64 95.8,49.24 94.144,49.24 C92.08,49.24 90.112,48.208 90.112,45.784 C90.112,40.624 97.912,42.928 97.912,40.528 C97.912,39.592 96.952,39.04 95.704,39.04 C94.384,39.04 93.472,39.736 93.472,41.08 L90.472,41.08 C90.472,37.96 93.016,36.76 95.704,36.76 C98.344,36.76 100.792,37.84 100.792,40.648 L100.792,49 L97.96,49 Z M106.192,49 L102.472,37 L105.472,37 L108.232,46.528 L110.992,37 L113.992,37 L110.272,49 L106.192,49 Z M117.352,34.6 C116.32,34.6 115.552,33.808 115.552,32.8 C115.552,31.768 116.32,31 117.352,31 C118.408,31 119.152,31.768 119.152,32.8 C119.152,33.808 118.408,34.6 117.352,34.6 Z M118.792,49 L115.912,49 L115.912,37 L118.792,37 L118.792,49 Z M131.608,45.544 C131.608,47.824 129.52,49.24 126.712,49.24 C123.712,49.24 121.432,47.704 121.432,45.04 L124.432,45.04 C124.432,46.336 125.416,46.984 126.712,46.984 C127.912,46.984 128.632,46.552 128.632,45.664 C128.632,43.12 121.648,45.28 121.648,40.384 C121.648,38.152 123.688,36.76 126.352,36.76 C129.232,36.76 131.392,38.536 131.392,40.816 L128.392,40.816 C128.392,39.808 127.528,39.04 126.352,39.04 C125.272,39.04 124.552,39.496 124.552,40.264 C124.552,42.568 131.608,40.6 131.608,45.544 Z M140.68,34.6 L138.28,34.6 L139.72,31 L142.84,31 L140.68,34.6 Z M139.36,39.28 C137.68,39.28 136.576,40.24 136.264,41.92 L142.456,41.92 C142.144,40.24 141.04,39.28 139.36,39.28 Z M145,45.4 C144.28,47.896 142.192,49.24 139.36,49.24 C135.928,49.24 133.408,46.672 133.408,43 C133.408,39.328 135.928,36.76 139.36,36.76 C142.792,36.76 145.312,39.328 145.312,43 C145.312,43.336 145.288,43.648 145.264,43.96 L136.24,43.96 C136.552,45.712 137.704,46.72 139.48,46.72 C140.752,46.72 141.496,46.24 141.88,45.4 L145,45.4 Z M158.632,39.4 C156.784,39.4 155.392,40.84 155.392,43 C155.392,45.16 156.784,46.6 158.632,46.6 C160.48,46.6 161.872,45.16 161.872,43 C161.872,40.84 160.48,39.4 158.632,39.4 Z M161.872,49 L161.872,47.488 C160.984,48.592 159.712,49.24 158.272,49.24 C154.984,49.24 152.512,46.672 152.512,43 C152.512,39.328 154.984,36.76 158.272,36.76 C159.712,36.76 160.96,37.408 161.872,38.512 L161.872,31 L164.752,31 L164.752,49 L161.872,49 Z M175.792,49 L175.792,47.296 C175.072,48.544 173.848,49.24 172.408,49.24 C169.888,49.24 167.992,47.56 167.992,44.176 L167.992,37 L170.872,37 L170.872,43.6 C170.872,45.616 171.808,46.72 173.344,46.72 C174.856,46.72 175.792,45.616 175.792,43.6 L175.792,37 L178.672,37 L178.672,49 L175.792,49 Z M190.432,49 L187.552,49 L187.552,31 L190.432,31 L190.432,49 Z M197.824,46.84 C199.504,46.84 201.04,45.88 201.04,44.056 L201.04,43.504 C199.12,44.296 196.144,44.056 196.144,45.592 C196.144,46.432 196.864,46.84 197.824,46.84 Z M201.04,49 L201.04,47.224 C200.272,48.64 198.88,49.24 197.224,49.24 C195.16,49.24 193.192,48.208 193.192,45.784 C193.192,40.624 200.992,42.928 200.992,40.528 C200.992,39.592 200.032,39.04 198.784,39.04 C197.464,39.04 196.552,39.736 196.552,41.08 L193.552,41.08 C193.552,37.96 196.096,36.76 198.784,36.76 C201.424,36.76 203.872,37.84 203.872,40.648 L203.872,49 L201.04,49 Z M209.872,42.4 L209.872,49 L206.992,49 L206.992,37 L209.872,37 L209.872,38.728 C210.616,37.456 211.84,36.76 213.328,36.76 C215.872,36.76 217.792,38.44 217.792,41.824 L217.792,49 L214.912,49 L214.912,42.4 C214.912,40.384 213.952,39.28 212.392,39.28 C210.832,39.28 209.872,40.384 209.872,42.4 Z M229.192,41.776 C229,40.192 227.728,39.4 226.216,39.4 C224.416,39.4 223.072,40.84 223.072,43 C223.072,45.16 224.416,46.6 226.216,46.6 C227.728,46.6 229.024,45.712 229.264,43.96 L232.24,43.96 C232.096,47.128 229.552,49.24 226.216,49.24 C222.76,49.24 220.192,46.672 220.192,43 C220.192,39.328 222.76,36.76 226.216,36.76 C229.456,36.76 231.928,38.776 232.216,41.776 L229.192,41.776 Z M239.872,39.28 C238.192,39.28 237.088,40.24 236.776,41.92 L242.968,41.92 C242.656,40.24 241.552,39.28 239.872,39.28 Z M245.512,45.4 C244.792,47.896 242.704,49.24 239.872,49.24 C236.44,49.24 233.92,46.672 233.92,43 C233.92,39.328 236.44,36.76 239.872,36.76 C243.304,36.76 245.824,39.328 245.824,43 C245.824,43.336 245.8,43.648 245.776,43.96 L236.752,43.96 C237.064,45.712 238.216,46.72 239.992,46.72 C241.264,46.72 242.008,46.24 242.392,45.4 L245.512,45.4 Z M251.224,42.16 L251.224,49 L248.344,49 L248.344,37 L251.224,37 L251.224,38.56 C251.92,37.408 253.072,36.76 254.44,36.76 C256.072,36.76 257.44,37.504 258.136,38.968 C258.856,37.552 260.224,36.76 261.88,36.76 C264.304,36.76 266.104,38.368 266.104,41.584 L266.104,49 L263.224,49 L263.224,42.16 C263.224,40.288 262.36,39.28 260.944,39.28 C259.528,39.28 258.664,40.288 258.664,42.16 L258.664,49 L255.784,49 L255.784,42.16 C255.784,40.288 254.92,39.28 253.504,39.28 C252.088,39.28 251.224,40.288 251.224,42.16 Z M274.456,39.28 C272.776,39.28 271.672,40.24 271.36,41.92 L277.552,41.92 C277.24,40.24 276.136,39.28 274.456,39.28 Z M280.096,45.4 C279.376,47.896 277.288,49.24 274.456,49.24 C271.024,49.24 268.504,46.672 268.504,43 C268.504,39.328 271.024,36.76 274.456,36.76 C277.888,36.76 280.408,39.328 280.408,43 C280.408,43.336 280.384,43.648 280.36,43.96 L271.336,43.96 C271.648,45.712 272.8,46.72 274.576,46.72 C275.848,46.72 276.592,46.24 276.976,45.4 L280.096,45.4 Z M285.808,42.4 L285.808,49 L282.928,49 L282.928,37 L285.808,37 L285.808,38.728 C286.552,37.456 287.776,36.76 289.264,36.76 C291.808,36.76 293.728,38.44 293.728,41.824 L293.728,49 L290.848,49 L290.848,42.4 C290.848,40.384 289.888,39.28 288.328,39.28 C286.768,39.28 285.808,40.384 285.808,42.4 Z M300.568,44.896 C300.568,46.072 301.12,46.6 302.368,46.6 C302.776,46.6 303.28,46.528 303.688,46.384 L303.688,48.952 C303.256,49.096 302.488,49.24 301.792,49.24 C299.416,49.24 297.688,48.304 297.688,45.088 L297.688,39.52 L295.768,39.52 L295.768,37 L297.688,37 L297.688,33.4 L300.568,33.4 L300.568,37 L303.688,37 L303.688,39.52 L300.568,39.52 L300.568,44.896 Z" id="Êtreavisédulancement" fill="#01458E" fill-rule="nonzero"></path>
            </g>
        </g>
    </g>
</svg>