<?xml version="1.0" encoding="UTF-8"?>
<svg role="img" aria-label="Union des municipalités du Québec – Outil de participation jeunesse" width="608px" height="225px" viewBox="0 0 608 225" version="1.1" xmlns="http://www.w3.org/2000/svg" xmlns:xlink="http://www.w3.org/1999/xlink">
    <!-- Generator: Sketch 53.2 (72643) - https://sketchapp.com -->
    <title>Union des municipalités du Québec – Outil de participation jeunesse</title>
    <g id="Page-1" stroke="none" stroke-width="1" fill="none" fill-rule="evenodd">
        <g id="Artboard-Copy-2" transform="translate(-172.000000, -100.000000)">
            <path d="M383.97,150.42 C378.09,150.42 374.52,146.808 374.52,139.5 L374.52,129 C374.52,121.692 378.09,118.08 383.97,118.08 C389.85,118.08 393.42,121.692 393.42,129 L393.42,139.5 C393.42,146.808 389.85,150.42 383.97,150.42 Z M383.97,145.8 C386.7,145.8 388.38,144.246 388.38,139.5 L388.38,129 C388.38,124.254 386.742,122.7 383.97,122.7 C381.24,122.7 379.56,124.254 379.56,129 L379.56,139.5 C379.56,144.246 381.198,145.8 383.97,145.8 Z M412.32,150 L412.32,147.018 C411.06,149.202 408.918,150.42 406.398,150.42 C401.988,150.42 398.67,147.48 398.67,141.558 L398.67,129 L403.71,129 L403.71,140.55 C403.71,144.078 405.348,146.01 408.036,146.01 C410.682,146.01 412.32,144.078 412.32,140.55 L412.32,129 L417.36,129 L417.36,150 L412.32,150 Z M429.54,142.818 C429.54,144.876 430.506,145.8 432.69,145.8 C433.404,145.8 434.286,145.674 435,145.422 L435,149.916 C434.244,150.168 432.9,150.42 431.682,150.42 C427.524,150.42 424.5,148.782 424.5,143.154 L424.5,133.41 L421.14,133.41 L421.14,129 L424.5,129 L424.5,122.7 L429.54,122.7 L429.54,129 L435,129 L435,133.41 L429.54,133.41 L429.54,142.818 Z M442.14,124.8 C440.334,124.8 438.99,123.414 438.99,121.65 C438.99,119.844 440.334,118.5 442.14,118.5 C443.988,118.5 445.29,119.844 445.29,121.65 C445.29,123.414 443.988,124.8 442.14,124.8 Z M444.66,150 L439.62,150 L439.62,129 L444.66,129 L444.66,150 Z M455.58,150 L450.54,150 L450.54,118.5 L455.58,118.5 L455.58,150 Z M480.36,133.2 C477.126,133.2 474.69,135.72 474.69,139.5 C474.69,143.28 477.126,145.8 480.36,145.8 C483.594,145.8 486.03,143.28 486.03,139.5 C486.03,135.72 483.594,133.2 480.36,133.2 Z M486.03,150 L486.03,147.354 C484.476,149.286 482.25,150.42 479.73,150.42 C473.976,150.42 469.65,145.926 469.65,139.5 C469.65,133.074 473.976,128.58 479.73,128.58 C482.25,128.58 484.434,129.714 486.03,131.646 L486.03,118.5 L491.07,118.5 L491.07,150 L486.03,150 Z M505.896,132.99 C502.956,132.99 501.024,134.67 500.478,137.61 L511.314,137.61 C510.768,134.67 508.836,132.99 505.896,132.99 Z M515.766,143.7 C514.506,148.068 510.852,150.42 505.896,150.42 C499.89,150.42 495.48,145.926 495.48,139.5 C495.48,133.074 499.89,128.58 505.896,128.58 C511.902,128.58 516.312,133.074 516.312,139.5 C516.312,140.088 516.27,140.634 516.228,141.18 L500.436,141.18 C500.982,144.246 502.998,146.01 506.106,146.01 C508.332,146.01 509.634,145.17 510.306,143.7 L515.766,143.7 Z M385.65,199.8 C388.884,199.8 391.32,197.28 391.32,193.5 C391.32,189.72 388.884,187.2 385.65,187.2 C382.416,187.2 379.98,189.72 379.98,193.5 C379.98,197.28 382.416,199.8 385.65,199.8 Z M386.28,204.42 C383.76,204.42 381.576,203.286 379.98,201.354 L379.98,214.5 L374.94,214.5 L374.94,183 L379.98,183 L379.98,185.646 C381.576,183.714 383.76,182.58 386.28,182.58 C392.034,182.58 396.36,187.074 396.36,193.5 C396.36,199.926 392.034,204.42 386.28,204.42 Z M407.826,200.22 C410.766,200.22 413.454,198.54 413.454,195.348 L413.454,194.382 C410.094,195.768 404.886,195.348 404.886,198.036 C404.886,199.506 406.146,200.22 407.826,200.22 Z M413.454,204 L413.454,200.892 C412.11,203.37 409.674,204.42 406.776,204.42 C403.164,204.42 399.72,202.614 399.72,198.372 C399.72,189.342 413.37,193.374 413.37,189.174 C413.37,187.536 411.69,186.57 409.506,186.57 C407.196,186.57 405.6,187.788 405.6,190.14 L400.35,190.14 C400.35,184.68 404.802,182.58 409.506,182.58 C414.126,182.58 418.41,184.47 418.41,189.384 L418.41,204 L413.454,204 Z M428.91,193.29 L428.91,204 L423.87,204 L423.87,183 L428.91,183 L428.91,186.402 C430.422,183.924 432.9,182.58 435.966,182.58 C436.344,182.58 436.764,182.58 437.016,182.664 L437.016,188.166 C436.428,187.956 435.672,187.83 434.832,187.83 C431.094,187.83 428.91,189.762 428.91,193.29 Z M447.096,196.818 C447.096,198.876 448.062,199.8 450.246,199.8 C450.96,199.8 451.842,199.674 452.556,199.422 L452.556,203.916 C451.8,204.168 450.456,204.42 449.238,204.42 C445.08,204.42 442.056,202.782 442.056,197.154 L442.056,187.41 L438.696,187.41 L438.696,183 L442.056,183 L442.056,176.7 L447.096,176.7 L447.096,183 L452.556,183 L452.556,187.41 L447.096,187.41 L447.096,196.818 Z M459.696,178.8 C457.89,178.8 456.546,177.414 456.546,175.65 C456.546,173.844 457.89,172.5 459.696,172.5 C461.544,172.5 462.846,173.844 462.846,175.65 C462.846,177.414 461.544,178.8 459.696,178.8 Z M462.216,204 L457.176,204 L457.176,183 L462.216,183 L462.216,204 Z M482.376,191.358 C482.04,188.586 479.814,187.2 477.168,187.2 C474.018,187.2 471.666,189.72 471.666,193.5 C471.666,197.28 474.018,199.8 477.168,199.8 C479.814,199.8 482.082,198.246 482.502,195.18 L487.71,195.18 C487.458,200.724 483.006,204.42 477.168,204.42 C471.12,204.42 466.626,199.926 466.626,193.5 C466.626,187.074 471.12,182.58 477.168,182.58 C482.838,182.58 487.164,186.108 487.668,191.358 L482.376,191.358 Z M494.64,178.8 C492.834,178.8 491.49,177.414 491.49,175.65 C491.49,173.844 492.834,172.5 494.64,172.5 C496.488,172.5 497.79,173.844 497.79,175.65 C497.79,177.414 496.488,178.8 494.64,178.8 Z M497.16,204 L492.12,204 L492.12,183 L497.16,183 L497.16,204 Z M513.75,199.8 C516.984,199.8 519.42,197.28 519.42,193.5 C519.42,189.72 516.984,187.2 513.75,187.2 C510.516,187.2 508.08,189.72 508.08,193.5 C508.08,197.28 510.516,199.8 513.75,199.8 Z M514.38,204.42 C511.86,204.42 509.676,203.286 508.08,201.354 L508.08,214.5 L503.04,214.5 L503.04,183 L508.08,183 L508.08,185.646 C509.676,183.714 511.86,182.58 514.38,182.58 C520.134,182.58 524.46,187.074 524.46,193.5 C524.46,199.926 520.134,204.42 514.38,204.42 Z M535.926,200.22 C538.866,200.22 541.554,198.54 541.554,195.348 L541.554,194.382 C538.194,195.768 532.986,195.348 532.986,198.036 C532.986,199.506 534.246,200.22 535.926,200.22 Z M541.554,204 L541.554,200.892 C540.21,203.37 537.774,204.42 534.876,204.42 C531.264,204.42 527.82,202.614 527.82,198.372 C527.82,189.342 541.47,193.374 541.47,189.174 C541.47,187.536 539.79,186.57 537.606,186.57 C535.296,186.57 533.7,187.788 533.7,190.14 L528.45,190.14 C528.45,184.68 532.902,182.58 537.606,182.58 C542.226,182.58 546.51,184.47 546.51,189.384 L546.51,204 L541.554,204 Z M558.27,196.818 C558.27,198.876 559.236,199.8 561.42,199.8 C562.134,199.8 563.016,199.674 563.73,199.422 L563.73,203.916 C562.974,204.168 561.63,204.42 560.412,204.42 C556.254,204.42 553.23,202.782 553.23,197.154 L553.23,187.41 L549.87,187.41 L549.87,183 L553.23,183 L553.23,176.7 L558.27,176.7 L558.27,183 L563.73,183 L563.73,187.41 L558.27,187.41 L558.27,196.818 Z M570.87,178.8 C569.064,178.8 567.72,177.414 567.72,175.65 C567.72,173.844 569.064,172.5 570.87,172.5 C572.718,172.5 574.02,173.844 574.02,175.65 C574.02,177.414 572.718,178.8 570.87,178.8 Z M573.39,204 L568.35,204 L568.35,183 L573.39,183 L573.39,204 Z M588.51,204.42 C582.378,204.42 577.8,199.926 577.8,193.5 C577.8,187.074 582.378,182.58 588.51,182.58 C594.642,182.58 599.22,187.074 599.22,193.5 C599.22,199.926 594.642,204.42 588.51,204.42 Z M588.51,199.8 C591.744,199.8 594.18,197.28 594.18,193.5 C594.18,189.72 591.744,187.2 588.51,187.2 C585.276,187.2 582.84,189.72 582.84,193.5 C582.84,197.28 585.276,199.8 588.51,199.8 Z M608.67,192.45 L608.67,204 L603.63,204 L603.63,183 L608.67,183 L608.67,186.024 C609.972,183.798 612.114,182.58 614.718,182.58 C619.17,182.58 622.53,185.52 622.53,191.442 L622.53,204 L617.49,204 L617.49,192.45 C617.49,188.922 615.81,186.99 613.08,186.99 C610.35,186.99 608.67,188.922 608.67,192.45 Z M377.46,232.8 C375.654,232.8 374.31,231.414 374.31,229.65 C374.31,227.844 375.654,226.5 377.46,226.5 C379.308,226.5 380.61,227.844 380.61,229.65 C380.61,231.414 379.308,232.8 377.46,232.8 Z M374.94,261.024 L374.94,237 L379.98,237 L379.98,261.15 C379.98,266.61 376.83,268.5 372.504,268.5 C371.664,268.5 370.656,268.416 370.32,268.332 L370.32,263.754 C370.782,263.838 371.328,263.88 371.832,263.88 C373.764,263.88 374.94,263.292 374.94,261.024 Z M394.806,240.99 C391.866,240.99 389.934,242.67 389.388,245.61 L400.224,245.61 C399.678,242.67 397.746,240.99 394.806,240.99 Z M404.676,251.7 C403.416,256.068 399.762,258.42 394.806,258.42 C388.8,258.42 384.39,253.926 384.39,247.5 C384.39,241.074 388.8,236.58 394.806,236.58 C400.812,236.58 405.222,241.074 405.222,247.5 C405.222,248.088 405.18,248.634 405.138,249.18 L389.346,249.18 C389.892,252.246 391.908,254.01 395.016,254.01 C397.242,254.01 398.544,253.17 399.216,251.7 L404.676,251.7 Z M423.072,258 L423.072,255.018 C421.812,257.202 419.67,258.42 417.15,258.42 C412.74,258.42 409.422,255.48 409.422,249.558 L409.422,237 L414.462,237 L414.462,248.55 C414.462,252.078 416.1,254.01 418.788,254.01 C421.434,254.01 423.072,252.078 423.072,248.55 L423.072,237 L428.112,237 L428.112,258 L423.072,258 Z M439.032,246.45 L439.032,258 L433.992,258 L433.992,237 L439.032,237 L439.032,240.024 C440.334,237.798 442.476,236.58 445.08,236.58 C449.532,236.58 452.892,239.52 452.892,245.442 L452.892,258 L447.852,258 L447.852,246.45 C447.852,242.922 446.172,240.99 443.442,240.99 C440.712,240.99 439.032,242.922 439.032,246.45 Z M467.508,240.99 C464.568,240.99 462.636,242.67 462.09,245.61 L472.926,245.61 C472.38,242.67 470.448,240.99 467.508,240.99 Z M477.378,251.7 C476.118,256.068 472.464,258.42 467.508,258.42 C461.502,258.42 457.092,253.926 457.092,247.5 C457.092,241.074 461.502,236.58 467.508,236.58 C473.514,236.58 477.924,241.074 477.924,247.5 C477.924,248.088 477.882,248.634 477.84,249.18 L462.048,249.18 C462.594,252.246 464.61,254.01 467.718,254.01 C469.944,254.01 471.246,253.17 471.918,251.7 L477.378,251.7 Z M498.882,251.952 C498.882,255.942 495.228,258.42 490.314,258.42 C485.064,258.42 481.074,255.732 481.074,251.07 L486.324,251.07 C486.324,253.338 488.046,254.472 490.314,254.472 C492.414,254.472 493.674,253.716 493.674,252.162 C493.674,247.71 481.452,251.49 481.452,242.922 C481.452,239.016 485.022,236.58 489.684,236.58 C494.724,236.58 498.504,239.688 498.504,243.678 L493.254,243.678 C493.254,241.914 491.742,240.57 489.684,240.57 C487.794,240.57 486.534,241.368 486.534,242.712 C486.534,246.744 498.882,243.3 498.882,251.952 Z M520.05,251.952 C520.05,255.942 516.396,258.42 511.482,258.42 C506.232,258.42 502.242,255.732 502.242,251.07 L507.492,251.07 C507.492,253.338 509.214,254.472 511.482,254.472 C513.582,254.472 514.842,253.716 514.842,252.162 C514.842,247.71 502.62,251.49 502.62,242.922 C502.62,239.016 506.19,236.58 510.852,236.58 C515.892,236.58 519.672,239.688 519.672,243.678 L514.422,243.678 C514.422,241.914 512.91,240.57 510.852,240.57 C508.962,240.57 507.702,241.368 507.702,242.712 C507.702,246.744 520.05,243.3 520.05,251.952 Z M533.616,240.99 C530.676,240.99 528.744,242.67 528.198,245.61 L539.034,245.61 C538.488,242.67 536.556,240.99 533.616,240.99 Z M543.486,251.7 C542.226,256.068 538.572,258.42 533.616,258.42 C527.61,258.42 523.2,253.926 523.2,247.5 C523.2,241.074 527.61,236.58 533.616,236.58 C539.622,236.58 544.032,241.074 544.032,247.5 C544.032,248.088 543.99,248.634 543.948,249.18 L528.156,249.18 C528.702,252.246 530.718,254.01 533.826,254.01 C536.052,254.01 537.354,253.17 538.026,251.7 L543.486,251.7 Z" id="Outildeparticipationjeunesse" fill="#FFFFFF" fill-rule="nonzero"></path>
            <path d="M281.120687,146.397168 C289.85105,146.397168 293.08474,141.636903 293.08474,136.920696 C293.08474,132.310628 289.609879,127.588413 281.120687,127.588413 C272.635514,127.588413 269.158644,132.310628 269.158644,136.920696 C269.158644,141.636903 272.394344,146.397168 281.120687,146.397168 Z M302,136.920696 C302,142.536086 298.27392,147.072056 291.251847,149.132768 L300.036472,152.467157 L289.722425,152.467157 L283.136468,150.444495 C282.525504,150.522597 281.856256,150.522597 281.120687,150.522597 C272.466695,150.522597 266.43342,148.273638 263.149485,144.594796 C264.291024,142.163596 265.171296,139.620249 265.746085,137.000801 C266.521849,133.430102 266.656502,130.001589 266.244503,126.807385 C269.741472,124.686594 274.727666,123.466989 281.120687,123.466989 C294.485538,123.466989 302,129.010285 302,136.920696 Z M203.291838,150.105048 L199.782811,150.105048 L199.782811,149.207867 C197.03347,150.103045 193.534492,150.519594 189.394403,150.519594 C178.467382,150.519594 172,147.635798 172,140.630578 L172,123.914578 L180.543455,123.914578 L180.543455,139.014451 C180.543455,143.476324 182.862709,146.396167 189.394403,146.396167 C195.924087,146.396167 198.243341,143.476324 198.243341,139.014451 L198.243341,123.914578 L208.987475,123.914578 C206.26828,127.895818 204.262548,132.325648 203.245613,136.9998 C202.224659,141.681962 202.30304,146.121805 203.291838,150.105048 Z M264.973938,121.528437 L260.046026,121.528437 L259.806866,120.837528 C257.061545,112.843006 250.921753,107.538024 242.926959,106 C253.675113,106.576759 261.748286,112.67078 264.973938,121.528437 Z M218.338448,121.641987 L210.478309,121.641987 C217.283329,112.842405 227.47679,106.956659 237.662213,106.956659 C247.799402,106.956659 255.414352,112.79234 258.406873,121.527837 C255.26764,114.514606 249.03138,110.008676 240.93007,110.008676 C232.786555,110.008676 224.550592,114.56267 218.338448,121.641987 Z M204.013138,152.471563 L208.943059,152.471563 L209.18222,153.162472 C211.925531,161.158996 218.069343,166.461976 226.058107,168 C215.311963,167.425244 207.240799,161.32922 204.013138,152.471563 Z M250.648627,152.358013 L258.506757,152.358013 C251.703747,161.157595 241.512295,167.043341 231.326872,167.043341 C221.183654,167.043341 213.572724,161.205658 210.578193,152.472163 C213.721445,159.485394 219.955696,163.989321 228.059016,163.989321 C236.200521,163.989321 244.438494,159.43733 250.648627,152.358013 Z M210.168003,123.91638 L224.029262,123.91638 L234.439777,143.736466 L234.560362,143.736466 L244.972887,123.91638 L258.683415,123.91638 L258.683415,150.070803 L250.879548,150.070803 L250.879548,128.484392 L250.750924,128.484392 L238.702461,150.070803 L230.297678,150.070803 L218.122601,128.484392 L217.975889,128.560493 L217.975889,150.070803 L210.168003,150.070803 L210.168003,123.91638 Z" id="Combined-Shape" fill="#FFFFFF"></path>
        </g>
    </g>
</svg>