<?xml version="1.0" encoding="UTF-8"?>
<svg role="img" aria-label="À venir en mai 2019" width="608px" height="86px" viewBox="0 0 608 86" version="1.1" xmlns="http://www.w3.org/2000/svg" xmlns:xlink="http://www.w3.org/1999/xlink">
    <!-- Generator: Sketch 53.2 (72643) - https://sketchapp.com -->
    <title>À venir en mai 2019</title>
    <desc>Created with Sketch.</desc>
    <g id="Page-1" stroke="none" stroke-width="1" fill="none" fill-rule="evenodd">
        <g id="Artboard-Copy-2" transform="translate(-172.000000, -460.000000)">
            <path d="M377.184,491.32 L374.976,487.72 L377.64,487.72 L379.176,491.32 L377.184,491.32 Z M380.112,504.376 L378.12,494.92 L376.128,504.376 L380.112,504.376 Z M381.528,511 L380.592,506.584 L375.648,506.584 L374.712,511 L372.288,511 L376.32,493 L379.92,493 L383.952,511 L381.528,511 Z M393.36,511 L389.28,499 L391.776,499 L395.04,509.08 L398.304,499 L400.8,499 L396.72,511 L393.36,511 Z M407.832,500.872 C405.888,500.872 404.592,502.072 404.304,504.088 L411.36,504.088 C411.072,502.072 409.752,500.872 407.832,500.872 Z M413.424,507.4 C412.68,509.872 410.592,511.24 407.832,511.24 C404.424,511.24 401.928,508.672 401.928,505 C401.928,501.328 404.424,498.76 407.832,498.76 C411.24,498.76 413.736,501.328 413.736,505 C413.736,505.288 413.712,505.552 413.688,505.816 L404.28,505.816 C404.568,507.904 405.912,509.128 407.928,509.128 C409.392,509.128 410.352,508.48 410.832,507.4 L413.424,507.4 Z M418.8,504.448 L418.8,511 L416.4,511 L416.4,499 L418.8,499 L418.8,500.896 C419.544,499.504 420.864,498.76 422.448,498.76 C425.064,498.76 427.008,500.44 427.008,503.968 L427.008,511 L424.608,511 L424.608,504.448 C424.608,502.072 423.504,500.872 421.704,500.872 C419.904,500.872 418.8,502.072 418.8,504.448 Z M431.64,496.384 C430.728,496.384 430.056,495.688 430.056,494.776 C430.056,493.864 430.728,493.192 431.64,493.192 C432.576,493.192 433.224,493.864 433.224,494.776 C433.224,495.688 432.576,496.384 431.64,496.384 Z M432.84,511 L430.44,511 L430.44,499 L432.84,499 L432.84,511 Z M438.792,504.976 L438.792,511 L436.392,511 L436.392,499 L438.792,499 L438.792,501.16 C439.656,499.6 441.12,498.76 442.944,498.76 C443.232,498.76 443.52,498.784 443.712,498.832 L443.712,501.448 C443.352,501.328 442.92,501.256 442.44,501.256 C440.136,501.256 438.792,502.504 438.792,504.976 Z M456.36,500.872 C454.416,500.872 453.12,502.072 452.832,504.088 L459.888,504.088 C459.6,502.072 458.28,500.872 456.36,500.872 Z M461.952,507.4 C461.208,509.872 459.12,511.24 456.36,511.24 C452.952,511.24 450.456,508.672 450.456,505 C450.456,501.328 452.952,498.76 456.36,498.76 C459.768,498.76 462.264,501.328 462.264,505 C462.264,505.288 462.24,505.552 462.216,505.816 L452.808,505.816 C453.096,507.904 454.44,509.128 456.456,509.128 C457.92,509.128 458.88,508.48 459.36,507.4 L461.952,507.4 Z M467.328,504.448 L467.328,511 L464.928,511 L464.928,499 L467.328,499 L467.328,500.896 C468.072,499.504 469.392,498.76 470.976,498.76 C473.592,498.76 475.536,500.44 475.536,503.968 L475.536,511 L473.136,511 L473.136,504.448 C473.136,502.072 472.032,500.872 470.232,500.872 C468.432,500.872 467.328,502.072 467.328,504.448 Z M486.888,504.112 L486.888,511 L484.488,511 L484.488,499 L486.888,499 L486.888,500.68 C487.584,499.432 488.784,498.76 490.224,498.76 C491.928,498.76 493.32,499.528 494.016,501.136 C494.712,499.576 496.104,498.76 497.832,498.76 C500.256,498.76 502.056,500.344 502.056,503.632 L502.056,511 L499.656,511 L499.656,504.112 C499.656,501.952 498.696,500.872 497.088,500.872 C495.456,500.872 494.472,501.952 494.472,504.112 L494.472,511 L492.072,511 L492.072,504.112 C492.072,501.952 491.088,500.872 489.48,500.872 C487.872,500.872 486.888,501.952 486.888,504.112 Z M509.424,509.224 C511.272,509.224 513,508.144 513,506.056 L513,505.192 C510.96,506.176 507.312,505.672 507.312,507.688 C507.312,508.72 508.2,509.224 509.424,509.224 Z M513,511 L513,508.984 C512.208,510.568 510.672,511.24 508.944,511.24 C506.808,511.24 504.864,510.208 504.864,507.832 C504.864,502.648 512.952,505.24 512.952,502.504 C512.952,501.328 511.824,500.68 510.36,500.68 C508.8,500.68 507.72,501.472 507.72,503.032 L505.224,503.032 C505.224,499.936 507.72,498.76 510.36,498.76 C512.952,498.76 515.352,499.816 515.352,502.6 L515.352,511 L513,511 Z M519.888,496.384 C518.976,496.384 518.304,495.688 518.304,494.776 C518.304,493.864 518.976,493.192 519.888,493.192 C520.824,493.192 521.472,493.864 521.472,494.776 C521.472,495.688 520.824,496.384 519.888,496.384 Z M521.088,511 L518.688,511 L518.688,499 L521.088,499 L521.088,511 Z M539.568,497.776 C539.568,502.744 533.376,504.88 532.752,508.792 L539.808,508.792 L539.808,511 L530.16,511 L530.16,509.8 C530.16,504.088 537.168,502.168 537.168,497.776 C537.168,495.784 536.232,494.968 534.96,494.968 C533.616,494.968 532.704,495.736 532.704,497.992 L532.704,499.384 L530.304,499.384 L530.304,497.8 C530.304,494.44 532.368,492.76 534.96,492.76 C537.504,492.76 539.568,494.464 539.568,497.776 Z M548.184,511.24 C545.04,511.24 543.12,509.296 543.12,505.336 L543.12,498.664 C543.12,494.728 545.04,492.76 548.184,492.76 C551.352,492.76 553.248,494.728 553.248,498.664 L553.248,505.336 C553.248,509.296 551.352,511.24 548.184,511.24 Z M548.184,509.032 C549.84,509.032 550.848,508.048 550.848,505.336 L550.848,498.664 C550.848,495.976 549.84,494.968 548.184,494.968 C546.528,494.968 545.52,495.976 545.52,498.664 L545.52,505.336 C545.52,508.048 546.504,509.032 548.184,509.032 Z M560.88,494.224 L560.88,493 L563.28,493 L563.28,511 L560.88,511 L560.88,498.616 L557.448,498.616 L557.448,496.6 L558.48,496.6 C560.184,496.6 560.88,495.928 560.88,494.224 Z M577.248,498.688 L577.248,498.256 C577.248,495.928 576.216,494.968 574.584,494.968 C572.952,494.968 571.92,495.952 571.92,498.256 L571.92,498.688 C571.92,501.04 572.904,501.976 574.584,501.976 C576.216,501.976 577.248,501.04 577.248,498.688 Z M574.584,511.24 C571.824,511.24 569.712,509.464 569.712,506.104 L569.712,505.696 L572.112,505.696 L572.112,505.912 C572.112,508.12 573.048,509.032 574.584,509.032 C576.192,509.032 577.248,507.976 577.248,505.336 L577.248,502.312 C576.48,503.656 575.304,504.184 573.96,504.184 C571.488,504.184 569.52,502.36 569.52,498.712 L569.52,498.232 C569.52,494.656 571.704,492.76 574.584,492.76 C577.464,492.76 579.648,494.728 579.648,498.472 L579.648,505.528 C579.648,509.272 577.464,511.24 574.584,511.24 Z" id="Àvenirenmai2019" fill="#FFFFFF" fill-rule="nonzero"></path>
        </g>
    </g>
</svg>